<svg xmlns="http://www.w3.org/2000/svg" viewBox="0 0 1052.24 1099.81"><defs><style>.cls-1{fill:none;}.cls-2{fill:#63efa3;}.cls-3{fill:#10b66f;}.cls-4{fill:#0c9e65;}.cls-5{fill:#f0fff9;}</style></defs><g id="Layer_2" data-name="Layer 2"><g id="Gem"><polygon class="cls-1" points="1052.24 710.22 1045.98 370.36 841.16 99.08 516 0 194.71 110.97 0 389.6 6.25 729.46 211.07 1000.74 536.23 1099.81 857.53 988.85 1052.24 710.22"/><polygon class="cls-1" points="878.79 428.1 481.3 150.34 94.3 442.53 252.6 900.89 737.44 891.97 878.79 428.1"/><polygon class="cls-2" points="1045.98 370.36 878.79 428.1 481.3 150.34 516 0 841.16 99.08 1045.98 370.36"/><polygon class="cls-3" points="1045.98 370.36 878.79 428.1 737.44 891.97 857.53 988.85 1052.24 710.22 1045.98 370.36"/><polygon class="cls-4" points="252.6 900.89 211.07 1000.74 536.23 1099.81 857.53 988.85 737.44 891.97 252.6 900.89"/><polygon class="cls-3" points="94.3 442.53 0 389.6 6.25 729.46 211.07 1000.74 252.6 900.89 94.3 442.53"/><polygon class="cls-5" points="481.3 150.34 516 0 194.71 110.97 0 389.6 94.3 442.53 481.3 150.34"/><polygon class="cls-2" points="481.3 150.34 94.3 442.53 252.6 900.89 737.44 891.97 878.79 428.1 481.3 150.34"/></g></g></svg>