<svg xmlns="http://www.w3.org/2000/svg" viewBox="0 0 774.87 475.45" preserveAspectRatio="none"><defs><style>.cls-1{opacity:0.7;}.cls-2{fill:#10b66f;}</style></defs><title>kite-sploof4</title><g id="Layer_2" data-name="Layer 2"><g id="Layer_1-2" data-name="Layer 1"><g class="cls-1"><path class="cls-2" d="M42.9,474.45a25,25,0,0,1-17.08-6.64c-.34-.31-.67-.64-1-1a36.9,36.9,0,0,1-8.08-12.12A26,26,0,0,1,17.34,434c7.42-16.18,10.48-32.3,9.1-47.91-1.29-14.62-6-23.52-10.54-32.13-4.17-7.9-8.11-15.36-9.46-26.9-2.12-18.19,4.31-27.84,11.75-39,6.44-9.65,13.73-20.6,15.26-38.79,2.12-25.44-8.71-43.6-18.26-59.61C5.24,173-3.36,158.59,3.39,139.54c2.31-6.5,6-12.42,9.61-18.15,6.76-10.77,13.14-20.94,9.41-33.47a29.52,29.52,0,0,0-2.85-6.48,25.71,25.71,0,0,1-.19-25.51,34,34,0,0,1,7.56-9.34,37.07,37.07,0,0,1,24-8.91,38.27,38.27,0,0,1,5.83.46,146.79,146.79,0,0,0,22.59,1.78,139.13,139.13,0,0,0,14.16-.72c22.7-2.32,36.07-9.44,49-16.31,13.11-7,25.49-13.57,47-15.69,3.78-.37,7.46-.56,10.93-.56,17.23,0,28.23,4.45,39.88,9.16,11.94,4.83,24.29,9.83,43.91,9.83,3.28,0,6.73-.15,10.26-.43,22.38-1.77,35.47-8.11,47-13.71S363.2,1,380.22,1c2,0,4.06.07,6.16.21,19,1.22,28.51,6.94,38.62,13,9.82,5.89,20,12,39.35,14a100.43,100.43,0,0,0,10.49.57c18.32,0,30.52-5.61,42.32-11,11.6-5.33,23.59-10.85,41.45-10.85,2.5,0,5.12.11,7.76.32,21.2,1.72,33.52,9.11,46.56,16.93C625.74,31.81,639,39.75,661.34,42.2a119.42,119.42,0,0,0,13,.71A125.93,125.93,0,0,0,697,40.82a38.72,38.72,0,0,1,6.86-.62,37.08,37.08,0,0,1,31.33,17.06,25.76,25.76,0,0,1,.07,27.54c-7,11.18-10,22.13-8.77,32.52,1.46,12.54,8.4,20,15.76,27.79,6.85,7.31,13.94,14.88,17.26,27.35,3.14,11.81.42,18.56-3,27.1-3.16,7.81-6.74,16.67-7,31.63-.37,22,7.07,35.15,13.63,46.77,6.4,11.33,12.44,22,10.38,39.13-1.57,13-6.64,20.18-12.5,28.46s-12.62,17.83-17.48,35.39A135.29,135.29,0,0,0,740,434.45a25.79,25.79,0,0,1-6.23,20.36,94.35,94.35,0,0,1-16.19,13.95,26.1,26.1,0,0,1-15.1,4.8,25.72,25.72,0,0,1-10.72-2.32,122.69,122.69,0,0,0-16-6,107.91,107.91,0,0,0-31.45-4.52c-10.12,0-20.1,1.22-30.68,2.52-9.65,1.18-19.63,2.4-31.2,3-3.53.17-6.69.25-9.65.25A109.3,109.3,0,0,1,549,464c-8.35-1.6-17.82-3.4-38.49-3.79q-3.53-.07-6.81-.07c-25.94,0-40.43,3-54.45,5.85-13.14,2.69-25.56,5.24-46.52,5.24l-3.23,0c-27.41-.33-41.06-4.55-54.25-8.62-12.42-3.84-24.15-7.46-46.08-7.46-1.84,0-3.76,0-5.71.08-28.07.75-42.19,6.22-54.65,11-10.39,4-19.36,7.51-34.35,7.51-3.38,0-7-.18-10.88-.55-20.84-2-36.56-8.18-50.43-13.66-13.35-5.28-24.88-9.83-38.08-9.83a58.66,58.66,0,0,0-16.87,2.53A74.78,74.78,0,0,0,60.3,467.91,26.53,26.53,0,0,1,42.9,474.45Z"/><path class="cls-2" d="M380.22,2c2,0,4,.07,6.1.2,18.73,1.21,28.17,6.87,38.16,12.86s20.18,12.09,39.76,14.14a102.5,102.5,0,0,0,10.6.57c18.54,0,30.84-5.66,42.74-11.13S541,7.88,558.61,7.88c2.48,0,5.06.11,7.68.32,21,1.7,33.19,9,46.13,16.79s26.24,15.73,48.81,18.21a121.31,121.31,0,0,0,13.09.71,127.93,127.93,0,0,0,22.83-2.1,36.73,36.73,0,0,1,6.68-.61,36.07,36.07,0,0,1,30.49,16.6,24.73,24.73,0,0,1,.06,26.46c-7.16,11.39-10.16,22.55-8.92,33.18,1.51,12.87,8.56,20.39,16,28.36,6.77,7.22,13.77,14.69,17,26.92,3.05,11.48.38,18.09-3,26.47-3.19,7.89-6.81,16.84-7.06,32-.38,22.25,7.13,35.55,13.76,47.28s12.28,21.74,10.25,38.52c-1.54,12.77-6.53,19.83-12.32,28-6,8.43-12.71,18-17.62,35.7A136.19,136.19,0,0,0,739,434.58a24.81,24.81,0,0,1-6,19.57,93.17,93.17,0,0,1-16,13.79,25.06,25.06,0,0,1-14.52,4.62,24.78,24.78,0,0,1-10.31-2.23,124.69,124.69,0,0,0-16.18-6,109.1,109.1,0,0,0-31.73-4.56c-10.18,0-20.2,1.22-30.8,2.53-9.63,1.18-19.59,2.4-31.13,2.95-3.51.17-6.66.25-9.6.25a108.53,108.53,0,0,1-23.6-2.44c-8.4-1.61-17.91-3.42-38.66-3.81-2.32,0-4.61-.07-6.83-.07-26,0-40.59,3-54.65,5.87-13.09,2.68-25.46,5.22-46.33,5.22l-3.21,0c-27.26-.33-40.84-4.52-54-8.58-12.49-3.86-24.29-7.5-46.37-7.5-1.85,0-3.78,0-5.73.08-28.25.75-42.46,6.26-55,11.11-10.3,4-19.19,7.44-34,7.44-3.35,0-7-.18-10.78-.54-20.7-2-36.36-8.15-50.17-13.6-13.44-5.31-25-9.9-38.44-9.9a59.51,59.51,0,0,0-17.15,2.57,75.86,75.86,0,0,0-28.23,15.86,25.53,25.53,0,0,1-16.75,6.3,24,24,0,0,1-16.4-6.38c-.33-.3-.66-.61-1-.94a36,36,0,0,1-7.87-11.79,25.06,25.06,0,0,1,.59-19.89c7.5-16.34,10.6-32.63,9.2-48.42-1.31-14.82-6.06-23.81-10.65-32.51-4.13-7.81-8-15.19-9.35-26.54C5.36,309.14,11.69,299.64,19,288.64c6.51-9.76,13.88-20.82,15.42-39.27,2.16-25.76-8.76-44.06-18.39-60.2C6.23,172.7-2.26,158.48,4.33,139.88c2.27-6.41,6-12.28,9.52-18,6.88-11,13.38-21.32,9.52-34.28a29.72,29.72,0,0,0-2.95-6.7,24.74,24.74,0,0,1-.18-24.52,33.2,33.2,0,0,1,7.34-9.07,35.9,35.9,0,0,1,29.06-8.22,147.51,147.51,0,0,0,22.75,1.79,141,141,0,0,0,14.26-.72C116.55,37.85,130,30.69,143,23.77S168.34,10.29,189.64,8.2c3.75-.37,7.4-.56,10.84-.56,17,0,28,4.42,39.5,9.09,12,4.87,24.48,9.9,44.29,9.9,3.31,0,6.79-.15,10.34-.43C317.18,24.41,330.35,18,342,12.39S363.43,2,380.22,2m0-2C345.3,0,338.3,20.72,294.45,24.21c-3.61.28-7,.42-10.18.42-38.15,0-48.31-19-83.79-19-3.42,0-7.09.18-11,.57-43.6,4.29-51.19,27.41-96,32a138.34,138.34,0,0,1-14.06.71A145.06,145.06,0,0,1,57,37.15a38,38,0,0,0-30.67,8.68,35,35,0,0,0-7.79,9.61A26.73,26.73,0,0,0,18.7,82a28,28,0,0,1,2.75,6.26c5.57,18.67-12.36,32.25-19,51-13.63,38.46,34.26,59.06,30,110-3.17,37.94-31.11,42.81-27,78,2.86,24.57,17.56,31.41,20,59,1.64,18.55-3.29,34.91-9,47.4a27,27,0,0,0-.63,21.49,38,38,0,0,0,8.31,12.45c.34.34.68.67,1,1a26,26,0,0,0,17.76,6.91A27.5,27.5,0,0,0,61,468.66a73.81,73.81,0,0,1,27.49-15.45A57.51,57.51,0,0,1,105,450.72c26.94,0,47.83,19.64,88.42,23.49,4,.38,7.63.55,11,.55,33.32,0,37.8-17.19,89-18.55,2-.06,3.86-.08,5.68-.08,45,0,46.95,15.43,100.32,16.08l3.23,0c43.63,0,51-11.09,101-11.09q3.27,0,6.79.07c37.87.71,38.2,6.25,62.3,6.25,2.86,0,6.06-.08,9.7-.25,24.66-1.18,42.83-5.48,61.83-5.48a107.39,107.39,0,0,1,31.17,4.48,120.51,120.51,0,0,1,15.91,5.94,27,27,0,0,0,26.81-2.58,93.17,93.17,0,0,0,16.36-14.1A26.79,26.79,0,0,0,741,434.32a134.8,134.8,0,0,1,3.44-53.11c9.69-35,26.82-37.62,30-64,4.24-35.18-24.72-43-24-86,.53-31.39,16.1-36.09,10-59-7-26.14-30.22-31.21-33-55C726,105.1,730.61,94,736.08,85.33A26.72,26.72,0,0,0,736,56.72,38.29,38.29,0,0,0,703.83,39.2a39.47,39.47,0,0,0-7,.64,124.7,124.7,0,0,1-22.47,2.07,118,118,0,0,1-12.87-.7c-44.46-4.88-52.31-31.55-95-35q-4.11-.33-7.84-.33c-36.16,0-47.58,21.89-83.77,21.89a101.39,101.39,0,0,1-10.39-.56c-38.81-4.06-40.09-24.55-78-27C384.27.07,382.2,0,380.22,0Z"/></g></g></g></svg>