<svg xmlns="http://www.w3.org/2000/svg" viewBox="0 0 429.99 362.64"><defs><style>.cls-1{fill:#10b66f;opacity:0.7;}</style></defs><title>kite-sploof</title><g id="Layer_2" data-name="Layer 2"><g id="Layer_1-2" data-name="Layer 1"><path class="cls-1" d="M199.26,47.4C254.05,55.75,275.2,27.9,278,23.87c.38-.55.77-1.11,1.19-1.64,5.45-6.92,35.93-41.27,81.12-7.83,44.38,32.84,54.89,61,56.68,66.86.21.66.42,1.31.67,1.95,1.83,4.63,8.9,29.08-23.35,71.19-31.55,41.19-7.8,83.91-1.45,93.85a28.52,28.52,0,0,0,2.58,3.41c9.07,10.26,68.06,80.22,7.87,98.74-56.87,17.5-91.55-11.71-99.33-19.28a28.18,28.18,0,0,0-4.74-3.74c-13.4-8.38-67.56-37.92-98.93,10-23,35.07-54.86,26.63-75,15.91a28.56,28.56,0,0,1-14.7-30.58c5.06-26.27,8.45-74.07-29.34-88.33-53-20-78-33-81-86s20-74,63-59S140.26,38.4,199.26,47.4Z"/></g></g></svg>