<svg xmlns="http://www.w3.org/2000/svg" viewBox="0 0 774.87 475.45"><defs><style>.cls-1{opacity:0.7;}.cls-2{fill:#10b66f;}</style></defs><title>kite-sploof3</title><g id="Layer_2" data-name="Layer 2"><g id="Layer_1-2" data-name="Layer 1"><g class="cls-1"><path class="cls-2" d="M42.9,475a25.52,25.52,0,0,1-17.42-6.78c-.34-.31-.68-.64-1-1a37.48,37.48,0,0,1-8.2-12.28,26.57,26.57,0,0,1,.62-21.09c7.39-16.1,10.44-32.13,9.07-47.66-1.29-14.52-6-23.37-10.49-31.94-4.2-7.94-8.16-15.44-9.51-27.07-2.15-18.38,4.64-28.56,11.82-39.34,6.72-10.08,13.67-20.5,15.18-38.56,2.11-25.29-8.67-43.36-18.19-59.32-10-16.79-18.67-31.29-11.84-50.56,2.32-6.55,6.05-12.5,9.66-18.25,6.7-10.67,13-20.75,9.35-33.06a28.91,28.91,0,0,0-2.8-6.36,26.23,26.23,0,0,1-.2-26,34.36,34.36,0,0,1,7.68-9.48,37.54,37.54,0,0,1,24.36-9,39.22,39.22,0,0,1,5.91.46,145.67,145.67,0,0,0,22.51,1.78,140.92,140.92,0,0,0,14.11-.71c22.6-2.32,35.93-9.41,48.81-16.27,13.16-7,25.58-13.61,47.19-15.73,3.79-.38,7.49-.57,11-.57,17.32,0,28.37,4.47,40.07,9.2,11.9,4.81,24.2,9.79,43.72,9.79,3.27,0,6.71-.14,10.22-.42,22.29-1.78,35.33-8.09,46.84-13.67C352.52,5.62,363.09.5,380.22.5c2,0,4.08.07,6.2.21,19.09,1.23,28.68,7,38.83,13.07C435,19.63,445.14,25.69,464.4,27.7a99.5,99.5,0,0,0,10.44.57c18.21,0,30.36-5.59,42.12-11s23.68-10.9,41.65-10.9c2.52,0,5.14.11,7.8.33,21.32,1.72,33.69,9.14,46.78,17,12.76,7.65,26,15.56,48.2,18a118.37,118.37,0,0,0,12.93.71,125.84,125.84,0,0,0,22.56-2.08,38.8,38.8,0,0,1,7-.63A37.56,37.56,0,0,1,735.58,57a26.26,26.26,0,0,1,.07,28.07c-7,11.09-9.9,21.92-8.7,32.21,1.45,12.37,8.34,19.72,15.63,27.5,6.9,7.36,14,15,17.39,27.57,3.18,12,.42,18.78-3.07,27.41-3.14,7.77-6.7,16.58-6.95,31.45-.37,21.84,7,34.95,13.57,46.51C770,289.11,776,299.88,774,317.15c-1.58,13.15-6.68,20.35-12.58,28.69S748.8,363.59,744,381.07a134.54,134.54,0,0,0-3.45,53.32,26.31,26.31,0,0,1-6.36,20.75,94.85,94.85,0,0,1-16.27,14,26.58,26.58,0,0,1-15.39,4.89,26.22,26.22,0,0,1-10.93-2.37,121.6,121.6,0,0,0-16-6,107.63,107.63,0,0,0-31.31-4.5c-10.09,0-20.06,1.22-30.62,2.51-9.66,1.19-19.64,2.41-31.23,3-3.55.17-6.71.25-9.68.25a109.43,109.43,0,0,1-23.88-2.47c-8.34-1.59-17.79-3.4-38.41-3.78q-3.52-.07-6.8-.07c-25.89,0-40.36,3-54.35,5.84-13.17,2.7-25.61,5.25-46.62,5.25l-3.23,0c-27.49-.34-41.17-4.56-54.4-8.65-12.38-3.82-24.08-7.43-45.93-7.43-1.84,0-3.76,0-5.69.08-28,.74-42.07,6.2-54.49,11-10.44,4-19.45,7.54-34.53,7.54-3.4,0-7.07-.19-10.92-.55-20.91-2-36.67-8.21-50.58-13.7-13.3-5.25-24.78-9.79-37.89-9.79a57.87,57.87,0,0,0-16.72,2.51,74.35,74.35,0,0,0-27.68,15.55A27,27,0,0,1,42.9,475Z"/><path d="M380.22,1c2,0,4.06.07,6.16.21,19,1.22,28.51,6.94,38.62,13,9.82,5.89,20,12,39.34,14a100.77,100.77,0,0,0,10.5.57c18.32,0,30.52-5.61,42.32-11,11.6-5.33,23.59-10.85,41.45-10.85,2.51,0,5.12.11,7.76.32,21.2,1.72,33.52,9.11,46.56,16.93C625.74,31.81,639,39.75,661.34,42.2a119.42,119.42,0,0,0,13,.71A125.93,125.93,0,0,0,697,40.82a38.72,38.72,0,0,1,6.86-.62,37.08,37.08,0,0,1,31.33,17.06,25.76,25.76,0,0,1,.07,27.54c-7,11.18-10,22.13-8.77,32.52,1.46,12.54,8.41,20,15.76,27.79,6.85,7.31,13.94,14.88,17.26,27.35,3.14,11.81.42,18.55-3,27.1-3.16,7.81-6.74,16.67-7,31.63-.37,22,7.07,35.15,13.63,46.77,6.4,11.33,12.44,22,10.38,39.13-1.57,13-6.64,20.18-12.5,28.46s-12.62,17.83-17.48,35.39A135.29,135.29,0,0,0,740,434.45a25.79,25.79,0,0,1-6.23,20.36,94.35,94.35,0,0,1-16.19,13.95,26.1,26.1,0,0,1-15.1,4.8,25.72,25.72,0,0,1-10.72-2.32,123.23,123.23,0,0,0-16-6,107.87,107.87,0,0,0-31.45-4.52c-10.12,0-20.1,1.22-30.68,2.52-9.65,1.18-19.63,2.41-31.2,3-3.53.17-6.69.25-9.65.25A109.3,109.3,0,0,1,549,464c-8.35-1.6-17.82-3.41-38.49-3.79-2.31,0-4.6-.07-6.81-.07-25.94,0-40.43,3-54.45,5.85-13.14,2.69-25.56,5.24-46.53,5.24l-3.22,0c-27.41-.33-41.06-4.55-54.25-8.62-12.42-3.84-24.15-7.46-46.08-7.46-1.84,0-3.76,0-5.71.08-28.07.75-42.19,6.22-54.65,11-10.39,4-19.36,7.51-34.35,7.51-3.38,0-7-.18-10.88-.55-20.84-2-36.56-8.18-50.44-13.66-13.34-5.27-24.87-9.83-38.07-9.83a58.66,58.66,0,0,0-16.87,2.53A74.78,74.78,0,0,0,60.3,467.91a26.48,26.48,0,0,1-17.4,6.54,25,25,0,0,1-17.08-6.64c-.34-.31-.67-.64-1-1a37.08,37.08,0,0,1-8.09-12.12A26.07,26.07,0,0,1,17.34,434c7.42-16.18,10.48-32.3,9.1-47.91-1.29-14.62-6-23.52-10.54-32.13-4.17-7.9-8.11-15.36-9.46-26.9-2.12-18.19,4.31-27.84,11.75-39,6.44-9.65,13.73-20.6,15.26-38.79,2.12-25.44-8.71-43.6-18.26-59.61C5.24,173-3.36,158.59,3.39,139.54c2.31-6.5,6-12.42,9.61-18.15,6.76-10.77,13.15-20.94,9.41-33.47a29.52,29.52,0,0,0-2.85-6.48,25.71,25.71,0,0,1-.19-25.51,33.84,33.84,0,0,1,7.56-9.34A36.94,36.94,0,0,1,56.8,38.14a146.59,146.59,0,0,0,22.59,1.78,139.13,139.13,0,0,0,14.16-.72c22.7-2.32,36.07-9.44,49-16.31,13.11-7,25.49-13.57,47-15.69,3.78-.37,7.46-.56,10.93-.56,17.23,0,28.23,4.45,39.88,9.16,11.94,4.83,24.29,9.83,43.91,9.83,3.28,0,6.73-.15,10.26-.43,22.38-1.77,35.47-8.11,47-13.71S363.2,1,380.22,1m0-1C345.3,0,338.3,20.72,294.45,24.21c-3.61.28-7,.42-10.18.42-38.15,0-48.31-19-83.79-19-3.42,0-7.09.18-11,.57-43.6,4.29-51.19,27.41-96,32a138.34,138.34,0,0,1-14.06.71A145.06,145.06,0,0,1,57,37.15a38,38,0,0,0-30.67,8.68,35,35,0,0,0-7.79,9.61A26.73,26.73,0,0,0,18.7,82a28,28,0,0,1,2.75,6.26c5.57,18.67-12.36,32.25-19,51-13.63,38.46,34.26,59.06,30,110-3.17,37.94-31.11,42.81-27,78,2.86,24.57,17.56,31.41,20,59,1.64,18.55-3.29,34.91-9,47.4a27,27,0,0,0-.63,21.49,38,38,0,0,0,8.31,12.45c.34.34.68.67,1,1a26,26,0,0,0,17.76,6.91A27.5,27.5,0,0,0,61,468.66a73.81,73.81,0,0,1,27.49-15.45A57.51,57.51,0,0,1,105,450.72c26.94,0,47.83,19.64,88.42,23.49,4,.38,7.63.55,11,.55,33.32,0,37.8-17.19,89-18.55,2-.06,3.86-.08,5.68-.08,45,0,46.95,15.43,100.32,16.08l3.23,0c43.63,0,51-11.09,101-11.09q3.27,0,6.79.07c37.87.71,38.2,6.25,62.3,6.25,2.86,0,6.06-.08,9.7-.25,24.66-1.18,42.83-5.48,61.83-5.48a107.39,107.39,0,0,1,31.17,4.48,120.51,120.51,0,0,1,15.91,5.94,27,27,0,0,0,26.81-2.58,93.17,93.17,0,0,0,16.36-14.1A26.79,26.79,0,0,0,741,434.32a134.8,134.8,0,0,1,3.44-53.11c9.69-35,26.82-37.62,30-64,4.24-35.18-24.72-43-24-86,.53-31.39,16.1-36.09,10-59-7-26.14-30.22-31.21-33-55C726,105.1,730.61,94,736.08,85.33A26.72,26.72,0,0,0,736,56.72,38.29,38.29,0,0,0,703.83,39.2a39.47,39.47,0,0,0-7,.64,124.7,124.7,0,0,1-22.47,2.07,118,118,0,0,1-12.87-.7c-44.46-4.88-52.31-31.55-95-35q-4.11-.33-7.84-.33c-36.16,0-47.58,21.89-83.77,21.89a101.39,101.39,0,0,1-10.39-.56c-38.81-4.06-40.09-24.55-78-27C384.27.07,382.2,0,380.22,0Z"/></g></g></g></svg>