<svg xmlns="http://www.w3.org/2000/svg" viewBox="0 0 406.9 384.77" preserveAspectRatio="none"><defs><style>.cls-1{fill:#10b66f;opacity:0.7;}</style></defs><title>kite-sploof2</title><g id="Layer_2" data-name="Layer 2"><g id="Layer_1-2" data-name="Layer 1"><path class="cls-1" d="M157.67,23c36,45,134.31-19.93,179.5,13.5,44.39,32.85,54.89,61,56.69,66.87.2.65.41,1.3.66,1.94,1.83,4.64,8.9,29.09-23.35,71.19-31.55,41.19-7.8,83.92-1.45,93.85a27.74,27.74,0,0,0,2.58,3.41c9.07,10.26,68.06,80.22,7.87,98.74-56.87,17.5-91.55-11.7-99.33-19.27a28,28,0,0,0-4.73-3.74c-13.41-8.38-67.57-37.92-98.94,10-23,35.08-54.86,26.64-75,15.92a28.56,28.56,0,0,1-14.7-30.58c5.06-26.27,8.45-74.08-29.34-88.34-53-20-15.5-34.5-18.5-87.5s-67-103-26-132C50.85,10.73,120.39-23.58,157.67,23Z"/></g></g></svg>