<svg xmlns="http://www.w3.org/2000/svg" viewBox="0 0 137.32 361.02"><defs><style>.cls-1,.cls-3{fill:#1db46f;}.cls-2,.cls-4{fill:#63efa3;}.cls-3,.cls-4{stroke:#63efa3;stroke-miterlimit:10;stroke-width:2px;}</style></defs><g id="Layer_2" data-name="Layer 2"><g id="Layer_1-2" data-name="Layer 1"><polyline class="cls-1" points="25.89 271.71 20.41 256.35 46.46 251.36 46.44 251.36 51.58 266.79 51.57 266.97 25.52 271.96"/><polygon class="cls-1" points="115.2 302.67 92.92 300.34 87.85 285.91 110.89 288.31 115.2 302.67"/><polygon class="cls-1" points="90.46 361.02 74.63 341.88 81.41 328.98 97.24 348.12 90.46 361.02"/><path class="cls-2" d="M67.71,353.3,64,346.13c22-26.1,24.92-40.26,23.49-47.54-1.65-8.42-10.26-12.92-18.6-17.27C58.62,275.94,48,270.38,45.67,256.1c-1.7-10.58,1.94-22.83,10.82-36.41l6.63-.33c-7.31,11.18-12.79,27.28-11.62,34.58,1.52,9.46,10.59,14.19,19.37,18.78,9.77,5.1,19.87,10.37,22.39,23.28,1.29,6.59.34,14-2.91,22.27C86.33,328.51,78.81,340.13,67.71,353.3Z"/><polygon class="cls-3" points="70.44 1.03 1.75 67.62 1.01 76.59 51.99 225.28 60.96 226.01 135.56 87.67 136.3 78.7 79.42 1.77 70.44 1.03"/><rect class="cls-4" x="1.16" y="74.95" width="135" height="5.4" transform="translate(6.6 -5.37) rotate(4.7)"/><rect class="cls-4" x="63" y="1.02" width="5.4" height="225" transform="matrix(1, 0.08, -0.08, 1, 9.53, -5.01)"/></g></g></svg>